<?xml version="1.0" encoding="UTF-8" standalone="no"?>
<svg
   xmlns:dc="http://purl.org/dc/elements/1.1/"
   xmlns:cc="http://creativecommons.org/ns#"
   xmlns:rdf="http://www.w3.org/1999/02/22-rdf-syntax-ns#"
   xmlns:svg="http://www.w3.org/2000/svg"
   xmlns="http://www.w3.org/2000/svg"
   xmlns:sodipodi="http://sodipodi.sourceforge.net/DTD/sodipodi-0.dtd"
   xmlns:inkscape="http://www.inkscape.org/namespaces/inkscape"
   xml:space="preserve"
   enable-background="new 0 0 32 32"
   viewBox="0 0 32 32"
   height="32px"
   width="32px"
   y="0px"
   x="0px"
   inkscape:export-filename="tasks.png"
   inkscape:export-xdpi="90"
   inkscape:export-ydpi="90"
   inkscape:version="1.0 (4035a4fb49, 2020-05-01)"
   sodipodi:docname="radio-trans.svg"
   id="svg3212"
   version="1.1"><metadata
     id="metadata4147"><rdf:RDF><cc:Work
         rdf:about=""><dc:format>image/svg+xml</dc:format><dc:type
           rdf:resource="http://purl.org/dc/dcmitype/StillImage" /></cc:Work></rdf:RDF></metadata><defs
     id="defs4145" /><sodipodi:namedview
     inkscape:document-rotation="0"
     inkscape:window-maximized="1"
     gridtolerance="10"
     borderopacity="1"
     inkscape:cy="-2.9149524"
     pagecolor="#ffffff"
     fit-margin-top="0"
     objecttolerance="10"
     showgrid="false"
     guidetolerance="10"
     inkscape:cx="25.717246"
     bordercolor="#666666"
     fit-margin-left="0"
     inkscape:zoom="9.4816592"
     inkscape:window-x="0"
     inkscape:window-y="0"
     inkscape:current-layer="svg3212"
     fit-margin-right="0"
     fit-margin-bottom="0"
     inkscape:pageshadow="2"
     inkscape:window-width="1436"
     inkscape:window-height="872"
     inkscape:pageopacity="0"
     id="namedview11" /><path
     inkscape:connector-curvature="0"
     id="path3615"
     d="M 5.3238144,27.267185 C 4.7917522,26.986461 4.4177017,26.581211 4.15348,25.999229 3.8003492,25.221436 3.7647534,24.597298 3.760967,19.116498 c -0.00472,-6.734592 0.043233,-7.003791 1.4081752,-7.915674 0.3838272,-0.256425 0.8557816,-0.81894 1.0487872,-1.2500351 0.3881439,-0.8669515 0.696847,-1.050171 1.7694108,-1.050171 0.6153046,0 17.3966268,-4.5304592 17.8738818,-4.8254165 0.09106,-0.056281 0.165569,-0.2205616 0.165569,-0.3650743 0,-0.4502592 0.718636,-0.9390384 1.380639,-0.9390384 0.951238,0 1.424666,0.6039704 1.281254,1.6345411 -0.129059,0.9274084 -1.333846,1.3156669 -2.200009,0.7089804 -0.415963,-0.2913486 -1.010119,-0.1424718 -8.737412,2.189303 -7.553254,2.2792577 -8.2858093,2.5389107 -8.231577,2.9176578 0.058624,0.409366 0.2011827,0.417315 9.290147,0.517905 8.930592,0.09884 9.24936,0.115913 9.807245,0.525319 1.240788,0.910553 1.291519,1.220094 1.28693,7.851703 -0.0041,5.483245 -0.03929,6.104682 -0.392958,6.883734 -0.275308,0.606395 -0.629454,0.979142 -1.213275,1.276986 -0.801924,0.409108 -1.116904,0.420376 -11.508224,0.411592 C 6.4752908,27.680127 6.0787679,27.665504 5.3238144,27.267185 Z M 23.574967,24.413091 c 5.670694,-2.56158 3.953447,-10.889406 -2.247489,-10.899253 -2.266325,-0.0036 -4.232556,1.263149 -5.179497,3.336903 -0.618584,1.354659 -0.601273,3.486172 0.03827,4.71757 0.811796,1.562967 2.024216,2.627651 3.505321,3.078181 1.021571,0.310748 2.933086,0.195859 3.883354,-0.233401 z m -3.779875,-1.305019 c -0.566954,-0.259604 -0.451965,-0.281368 1.532386,-0.290021 1.959238,-0.0085 2.10102,0.01606 1.63454,0.282643 -0.647105,0.369916 -2.36642,0.373925 -3.166926,0.0074 z m -2.104466,-1.784943 c -0.13485,-0.13486 -0.245183,-0.318735 -0.245183,-0.408635 0,-0.0899 1.746913,-0.163461 3.882035,-0.163461 2.135117,0 3.882035,0.03847 3.882035,0.08544 0,0.04702 -0.05581,0.230882 -0.124033,0.408635 -0.106425,0.277366 -0.622083,0.323188 -3.636851,0.323188 -2.459781,0 -3.586336,-0.07349 -3.758012,-0.245182 z M 17.173017,19.59324 c -0.07492,-0.07491 -0.136209,-0.304773 -0.136209,-0.510794 0,-0.351339 0.266229,-0.374581 4.290672,-0.374581 h 4.290667 v 0.510794 0.510792 h -4.154459 c -2.284951,0 -4.215753,-0.06129 -4.290671,-0.136204 z m 0.272426,-2.022555 c 0,-0.06357 0.09518,-0.293432 0.211508,-0.510794 0.196639,-0.367424 0.460792,-0.395203 3.758013,-0.395203 3.652271,0 3.794549,0.03127 3.794549,0.833981 0,0.107348 -1.660743,0.187606 -3.882035,0.187606 -2.135122,0 -3.882035,-0.05202 -3.882035,-0.115592 z m 2.101905,-2.252774 c 0.950113,-0.515211 2.38094,-0.561304 3.312511,-0.106708 l 0.817269,0.39882 -2.34965,0.0084 c -2.209142,0.0078 -2.315593,-0.01012 -1.78013,-0.300476 z m -10.163162,5.95321 c 0.902098,-0.902104 0.4483519,-2.363689 -0.8337056,-2.685466 -0.6334803,-0.158992 -1.4698961,0.358676 -1.7438806,1.07931 -0.5908997,1.554184 1.3932053,2.790531 2.5775862,1.606156 z M 9.412824,16.220438 C 10.001146,15.667733 10.0206,14.848114 9.4622104,14.138272 8.9469518,13.483221 7.915845,13.411743 7.2113223,13.982234 c -0.5936896,0.480739 -0.6420795,1.657067 -0.093126,2.263656 0.5170523,0.571337 1.6729921,0.558516 2.2946005,-0.02544 z"
     style="fill:#000000;stroke-width:0.40858808" /></svg>
